Coordinates
version=1
nRows=4
nColumns=63
inDegrees=yes

Units are S.I. units (second, meters, Newtons, ...)
If the header above contains a line with 'inDegrees', this indicates whether rotational values are in degrees (yes) or radians (no).

endheader
time	pelvis_tilt	pelvis_list	pelvis_rotation	pelvis_tx	pelvis_ty	pelvis_tz	hip_flexion_r	hip_adduction_r	hip_rotation_r	knee_angle_r	knee_angle_r_beta	ankle_angle_r	subtalar_angle_r	mtp_angle_r	hip_flexion_l	hip_adduction_l	hip_rotation_l	knee_angle_l	knee_angle_l_beta	ankle_angle_l	subtalar_angle_l	mtp_angle_l	L5_S1_Flex_Ext	L5_S1_Lat_Bending	L5_S1_axial_rotation	L4_L5_Flex_Ext	L4_L5_Lat_Bending	L4_L5_axial_rotation	L3_L4_Flex_Ext	L3_L4_Lat_Bending	L3_L4_axial_rotation	L2_L3_Flex_Ext	L2_L3_Lat_Bending	L2_L3_axial_rotation	L1_L2_Flex_Ext	L1_L2_Lat_Bending	L1_L2_axial_rotation	L1_T12_Flex_Ext	L1_T12_Lat_Bending	L1_T12_axial_rotation	Abs_r3	Abs_r2	Abs_r1	Abs_t1	Abs_t2	neck_flexion	neck_bending	neck_rotation	arm_flex_r	arm_add_r	arm_rot_r	elbow_flex_r	pro_sup_r	wrist_flex_r	wrist_dev_r	arm_flex_l	arm_add_l	arm_rot_l	elbow_flex_l	pro_sup_l	wrist_flex_l	wrist_dev_l
     11.63300000	    -53.36458298	     -1.86376393	     -5.24048889	     -0.25465690	      1.00709871	      0.02234787	    120.95138984	     -1.30665974	      1.05040728	    119.61002685	      2.08758879	     10.15321206	     -0.40184677	      0.00000000	     92.34084812	     -9.71896336	      2.34936260	     49.49522930	      0.86385472	      0.36716272	      1.22538395	      0.00000000	     -0.07808698	      0.14331526	      0.49948106	     -0.14501533	      0.19060929	      0.53069863	     -0.12828910	      0.34845672	      0.53069863	     -0.08924561	      0.34845672	      0.43704593	     -0.07251157	      0.29224848	      0.40582836	     -0.04461890	      0.22199534	      0.37461080	     -0.55776749	      1.62121088	      2.77796384	      0.00000000	      0.00000000	     -0.00000000	      0.00000000	     -0.00000000	     69.90459307	    -10.22145322	     13.64759495	     37.41148179	     54.62875909	      0.00000000	      5.00000014	     66.12258888	    -18.87191655	     16.41785936	     46.61622941	     55.36614279	      0.00000000	      5.00000014
     11.64200000	    -53.49169633	     -2.20911308	     -5.73249253	     -0.25462910	      1.00821473	      0.02306988	    122.39125484	     -1.01764926	      0.40618660	    119.72381385	      2.08957474	     10.79383201	     -0.37940826	      0.00000000	     91.02844543	    -10.27086827	      2.38349052	     48.60873865	      0.84838253	      0.55753103	      1.85931534	      0.00000000	     -0.08313652	      0.19879127	      0.59104649	     -0.15439284	      0.26439239	      0.62798690	     -0.13658500	      0.48334109	      0.62798690	     -0.09501673	      0.48334109	      0.51716568	     -0.07720058	      0.40537516	      0.48022527	     -0.04750421	      0.30792768	      0.44328487	     -0.59383588	      2.24876660	      3.28722327	      0.00000000	      0.00000000	     -0.00000000	      0.00000000	     -0.00000000	     70.24119999	    -10.11059257	     13.81468270	     37.05035326	     54.66305085	      0.00000000	      5.00000014	     66.11094629	    -18.91600353	     16.44809343	     46.45686247	     55.37945331	      0.00000000	      5.00000014
     11.65000000	    -53.63567446	     -2.57123647	     -6.18670774	     -0.25467492	      1.00899074	      0.02379623	    123.80421721	     -0.78788599	     -0.25319001	    119.73928575	      2.08984478	     11.43245285	     -0.24246302	      0.00000000	     90.03684318	    -10.90226698	      2.33233816	     48.35351000	      0.84392795	      1.30037078	      3.37564735	      0.00000000	     -0.07996640	      0.25712661	      0.67742599	     -0.14850560	      0.34197839	      0.71976512	     -0.13137679	      0.62517765	      0.71976512	     -0.09139360	      0.62517765	      0.59274774	     -0.07425680	      0.52433259	      0.55040862	     -0.04569280	      0.39828912	      0.50806949	     -0.57119198	      2.90866766	      3.76764014	      0.00000000	      0.00000000	     -0.00000000	      0.00000000	     -0.00000000	     70.66971997	    -10.02228044	     14.21663311	     36.43295068	     54.74629879	      0.00000000	      5.00000014	     66.12481889	    -18.98378029	     16.60493338	     46.19506304	     55.41884017	      0.00000000	      5.00000014
     11.65800000	    -53.70320773	     -2.72871931	     -6.21502098	     -0.25464698	      1.00961957	      0.02408524	    125.16871160	     -0.78099191	     -0.44714056	    119.70193058	      2.08919281	     11.66128057	     -0.25898403	      0.00000000	     89.17463393	    -10.96346470	      2.32757956	     48.46990954	      0.84595951	      1.17891126	      3.44873229	      0.00000000	     -0.08717177	      0.28397297	      0.68996685	     -0.16188670	      0.37768406	      0.73308978	     -0.14321450	      0.69045189	      0.73308978	     -0.09962862	      0.69045189	      0.60372099	     -0.08094771	      0.57907769	      0.56059807	     -0.04980995	      0.43987414	      0.51747514	     -0.62265924	      3.21235907	      3.83738863	      0.00000000	      0.00000000	     -0.00000000	      0.00000000	     -0.00000000	     70.79578126	     -9.96545334	     14.23040601	     36.47355983	     54.74837431	      0.00000000	      5.00000014	     66.15523932	    -19.02961328	     16.59683013	     46.15202090	     55.41976069	      0.00000000	      5.00000014
